# xmcd
#
# Track frame offsets:
#	150
#	14479
#	29513
#	46326
#	60091
#	71436
#	81823
#	97123
#	114469
#	128850
#
# Disc length: 1911 seconds
# Revision: 0
# Processed by: cddbd v1.5.2PL0 Copyright (c) Steve Scherf et al.
# Submitted via: dBpowerAMP V12.0
#
DISCID=7e07750a
DTITLE=Cherry Lee Mewis - Catch My Drift
DYEAR=2014
DGENRE=Blues
TTITLE0=It's Cool
TTITLE1=Hey, Hey, Hey
TTITLE2=I Can't Stand To Say Goodbye
TTITLE3=Love Can Wait
TTITLE4=Nobody's Fault But Mine
TTITLE5=Get Right Church
TTITLE6=Love Told Me To
TTITLE7=Stay Here With You
TTITLE8=Old Shoes
TTITLE9=Bride Ain't Me
EXTD=
EXTT0=
EXTT1=
EXTT2=
EXTT3=
EXTT4=
EXTT5=
EXTT6=
EXTT7=
EXTT8=
EXTT9=
PLAYORDER=
